<svg width="131" height="79" viewBox="0 0 131 79" fill="none" xmlns="http://www.w3.org/2000/svg">
<path d="M58.0297 0.0654453C61.0335 -0.935829 66.4432 9.80005 68.4596 15.2932C72.0058 17.8659 80.0422 23.4564 83.0616 26.1403C86.8163 29.4779 89.3195 34.067 89.1109 36.7788C88.9023 39.4906 85.0134 41.1296 78.681 43.6626C73.466 45.7486 61.3673 47.8346 60.7415 47.0002C60.1157 46.1658 62.5772 46.124 63.2447 45.9572C63.9122 45.7903 60.7415 45.9572 60.7415 45.1228C60.7415 44.2884 63.6619 44.497 63.6619 44.497C63.6619 44.497 60.7415 44.2884 60.7415 43.454C60.7415 42.6196 64.3294 43.0368 64.4963 43.0368C64.6631 43.0368 61.7845 42.6196 61.3673 41.7852C60.9501 40.9508 65.9982 40.7422 66.1651 40.7422C66.3737 40.7422 62.8275 39.282 63.6619 38.4476C64.4963 37.6132 77.638 37.2024 79.0982 36.3616C80.5584 35.5208 82.1745 34.2757 82.6444 32.1896C83.2532 29.4864 82.394 27.225 79.724 25.7231C77.0539 24.2212 72.0754 26.3489 69.9198 27.6005C68.6682 25.9317 64.2877 21.9683 59.2813 22.3855C54.2749 22.8027 53.1624 28.0872 54.0663 30.7295C56.7086 29.5474 60.3243 26.1403 61.9931 26.7661C63.6619 27.3919 61.1587 29.0607 61.7845 29.0607C62.4103 29.0607 68.9361 28.9516 67.208 30.1037C66.565 30.5323 65.3307 30.7295 65.3307 30.7295C65.3307 30.7295 67.6252 30.7295 67.6252 31.5639C67.6252 32.3982 64.4963 32.1896 64.4963 32.1896C64.4963 32.1896 67.6252 32.8154 67.4166 33.2326C67.208 33.6498 65.5553 33.4412 64.4963 33.4412C64.7744 33.5108 66.3737 33.8584 66.5823 34.4842C66.7909 35.11 61.7075 36.9407 58.4469 38.239C52.263 40.7013 44.888 47.4174 42.3848 44.0798C40.3823 41.4097 51.0069 23.7762 56.5695 15.2932C56.0132 10.6344 55.0259 1.06672 58.0297 0.0654453Z" fill="#9DD5EC"/>
<circle cx="59.4899" cy="7.78361" r="0.834395" fill="white"/>
<circle cx="61.9931" cy="7.78361" r="0.834395" fill="white"/>
<path d="M58.8641 10.9126C58.8641 10.9126 59.2813 12.8317 60.9501 12.9986C62.5266 13.1562 63.0361 11.3298 63.0361 11.3298" stroke="white" stroke-linecap="round"/>
<path d="M14.8663 55.481V56.821H9.02633V69.481H7.62633V56.821H1.78633V55.481H14.8663ZM31.2527 67.661C29.6927 69.0076 27.5327 69.681 24.7727 69.681C22.0127 69.681 19.8527 69.0076 18.2927 67.661C16.7327 66.3143 15.9527 64.5876 15.9527 62.481C15.9527 60.3743 16.7327 58.6476 18.2927 57.301C19.8527 55.9543 22.0127 55.281 24.7727 55.281C27.5327 55.281 29.6927 55.9543 31.2527 57.301C32.8127 58.6476 33.5927 60.3743 33.5927 62.481C33.5927 64.5876 32.8127 66.3143 31.2527 67.661ZM19.3727 66.721C20.6927 67.841 22.4927 68.401 24.7727 68.401C27.0527 68.401 28.8461 67.841 30.1527 66.721C31.4727 65.601 32.1327 64.1876 32.1327 62.481C32.1327 60.7743 31.4727 59.361 30.1527 58.241C28.8461 57.121 27.0527 56.561 24.7727 56.561C22.4927 56.561 20.6927 57.121 19.3727 58.241C18.0661 59.361 17.4127 60.7743 17.4127 62.481C17.4127 64.1876 18.0661 65.601 19.3727 66.721ZM45.222 69.681C42.462 69.681 40.302 69.0076 38.742 67.661C37.182 66.3143 36.402 64.5876 36.402 62.481C36.402 60.3743 37.182 58.6476 38.742 57.301C40.302 55.9543 42.462 55.281 45.222 55.281C46.262 55.281 47.2486 55.4076 48.182 55.661C49.1153 55.9143 49.7886 56.161 50.202 56.401L50.842 56.781V58.281C50.7886 58.241 50.7086 58.181 50.602 58.101C50.4953 58.021 50.262 57.881 49.902 57.681C49.542 57.481 49.1553 57.3076 48.742 57.161C48.342 57.0143 47.822 56.881 47.182 56.761C46.542 56.6276 45.8886 56.561 45.222 56.561C42.942 56.561 41.142 57.121 39.822 58.241C38.5153 59.361 37.862 60.7743 37.862 62.481C37.862 64.1876 38.5153 65.601 39.822 66.721C41.142 67.841 42.942 68.401 45.222 68.401C46.0486 68.401 46.882 68.301 47.722 68.101C48.5753 67.8876 49.2153 67.681 49.642 67.481L50.302 67.161V64.141H44.002V62.801H51.702V67.961C51.622 68.001 51.5086 68.061 51.362 68.141C51.2286 68.221 50.9286 68.361 50.462 68.561C50.0086 68.761 49.542 68.9343 49.062 69.081C48.5953 69.2276 48.0086 69.361 47.302 69.481C46.5953 69.6143 45.902 69.681 45.222 69.681ZM56.6027 68.141H66.6827V69.481H55.2027V55.481H66.2827V56.821H56.6027V61.701H65.4827V63.041H56.6027V68.141ZM81.253 55.481V56.821H75.413V69.481H74.013V56.821H68.173V55.481H81.253ZM95.2049 55.481H96.6049V69.481H95.2049V63.041H84.8449V69.481H83.4449V55.481H84.8449V61.701H95.2049V55.481ZM101.798 68.141H111.878V69.481H100.398V55.481H111.478V56.821H101.798V61.701H110.678V63.041H101.798V68.141ZM124.468 63.541C125.442 63.6076 126.175 63.9076 126.668 64.441C127.175 64.961 127.428 65.6876 127.428 66.621V69.481H126.028V66.681C126.028 65.0143 125.028 64.181 123.028 64.181H116.368V69.481H114.968V55.481H122.688C124.462 55.481 125.808 55.861 126.728 56.621C127.648 57.381 128.108 58.3876 128.108 59.641C128.108 60.6943 127.782 61.5676 127.128 62.261C126.488 62.941 125.602 63.3343 124.468 63.441V63.541ZM122.688 62.841C123.982 62.841 124.962 62.5676 125.628 62.021C126.308 61.461 126.648 60.7276 126.648 59.821C126.648 58.9276 126.308 58.2076 125.628 57.661C124.962 57.101 123.982 56.821 122.688 56.821H116.368V62.841H122.688Z" fill="#179CD7"/>
</svg>
