<svg width="450" height="130" viewBox="0 0 450 130" fill="none" xmlns="http://www.w3.org/2000/svg">
<path d="M138.052 79.3502C137.749 79.3502 137.48 79.2494 137.245 79.0461C137.01 78.8097 136.892 78.5231 136.892 78.1854C136.892 77.9153 136.994 77.6621 137.195 77.4258L145.561 65.827L137.951 54.9374C137.749 54.6672 137.649 54.414 137.649 54.1777C137.649 53.84 137.767 53.5699 138.002 53.3672C138.237 53.1309 138.505 53.0127 138.808 53.0127H145.309C145.712 53.0127 146.015 53.0972 146.216 53.266C146.418 53.4348 146.619 53.6543 146.821 53.9244L151.256 60.1543L155.741 53.9244C155.775 53.8906 155.859 53.7893 155.994 53.6205C156.128 53.4517 156.296 53.3166 156.497 53.2153C156.732 53.0802 156.985 53.0127 157.254 53.0127H163.453C163.755 53.0127 164.023 53.1309 164.259 53.3672C164.494 53.5699 164.611 53.8231 164.611 54.127C164.611 54.3972 164.511 54.6672 164.31 54.9374L156.548 65.827L165.065 77.4258C165.233 77.6621 165.317 77.9153 165.317 78.1854C165.317 78.5231 165.199 78.8097 164.964 79.0461C164.763 79.2494 164.494 79.3502 164.158 79.3502H157.354C156.783 79.3502 156.313 79.08 155.943 78.54L151.055 71.8543L146.116 78.54C145.914 78.8097 145.712 79.013 145.511 79.1477C145.309 79.2825 145.024 79.3502 144.654 79.3502H138.052Z" fill="black"/>
<path d="M194.184 53.0127C194.486 53.0127 194.739 53.1309 194.94 53.3672C195.175 53.5699 195.293 53.8062 195.293 54.0763C195.293 54.3127 195.243 54.5322 195.142 54.7348L185.566 77.9829C184.491 80.5494 183.466 82.5916 182.491 84.1114C181.517 85.6643 180.358 86.8634 179.014 87.7073C177.704 88.5857 176.075 89.0246 174.126 89.0246H171.606C171.236 89.0246 170.917 88.8891 170.648 88.6188C170.413 88.3825 170.295 88.0791 170.295 87.7073V83.4023C170.295 83.0312 170.413 82.7271 170.648 82.4907C170.917 82.2543 171.236 82.1362 171.606 82.1362H173.37C174.243 82.1362 174.915 81.8825 175.385 81.3766C175.856 80.9039 176.376 79.975 176.948 78.5906L177.149 78.1348L167.12 54.7348C167.02 54.4647 166.969 54.279 166.969 54.1777C167.036 53.84 167.17 53.5699 167.372 53.3672C167.608 53.1309 167.876 53.0127 168.178 53.0127H174.176C174.881 53.0127 175.369 53.3672 175.637 54.0763L181.131 68.3088L186.926 54.0763C187.195 53.3672 187.717 53.0127 188.489 53.0127H194.184Z" fill="black"/>
<path d="M206.969 79.3502C206.599 79.3502 206.28 79.232 206.011 78.9957C205.776 78.7595 205.659 78.4556 205.659 78.0842V59.901H198.15C197.78 59.901 197.461 59.7829 197.192 59.5465C196.956 59.3101 196.839 59.0062 196.839 58.6348V54.279C196.839 53.9075 196.956 53.6036 197.192 53.3672C197.461 53.1309 197.78 53.0127 198.15 53.0127H221.937C222.307 53.0127 222.61 53.1309 222.845 53.3672C223.08 53.6036 223.198 53.9075 223.198 54.279V58.6348C223.198 58.9724 223.08 59.2763 222.845 59.5465C222.61 59.7829 222.307 59.901 221.937 59.901H214.378V78.0842C214.378 78.4218 214.26 78.7257 214.025 78.9957C213.79 79.232 213.487 79.3502 213.117 79.3502H206.969Z" fill="black"/>
<path d="M253.676 77.6283C253.81 77.7972 253.878 78.0166 253.878 78.2867C253.878 78.5906 253.777 78.8436 253.575 79.0461C253.374 79.2494 253.105 79.3502 252.769 79.3502H245.26C244.655 79.3502 244.167 79.08 243.798 78.54L238.052 69.4738H235.533V78.0842C235.533 78.4218 235.415 78.7257 235.18 78.9957C234.945 79.232 234.642 79.3502 234.273 79.3502H228.074C227.738 79.3502 227.435 79.232 227.167 78.9957C226.932 78.7257 226.814 78.4218 226.814 78.0842V54.279C226.814 53.9075 226.932 53.6036 227.167 53.3672C227.435 53.1309 227.738 53.0127 228.074 53.0127H234.273C234.642 53.0127 234.945 53.1309 235.18 53.3672C235.415 53.6036 235.533 53.9075 235.533 54.279V62.5348H238.154L243.445 53.8231C243.815 53.2829 244.285 53.0127 244.857 53.0127H251.61C251.946 53.0127 252.215 53.114 252.416 53.3166C252.652 53.5192 252.769 53.7724 252.769 54.0763C252.769 54.2115 252.685 54.4478 252.517 54.7854L245.713 65.827L253.676 77.6283Z" fill="black"/>
<path d="M258.982 49.3667C258.612 49.3667 258.31 49.2485 258.075 49.0121C257.84 48.742 257.722 48.4212 257.722 48.0497V43.3394C257.722 42.9679 257.84 42.664 258.075 42.4277C258.344 42.1576 258.646 42.0225 258.982 42.0225H265.282C265.651 42.0225 265.954 42.1576 266.189 42.4277C266.458 42.664 266.592 42.9679 266.592 43.3394V48.0497C266.592 48.4212 266.458 48.742 266.189 49.0121C265.954 49.2485 265.651 49.3667 265.282 49.3667H258.982ZM258.982 79.3509C258.646 79.3509 258.344 79.2327 258.075 78.9964C257.84 78.7264 257.722 78.4225 257.722 78.0849V54.2796C257.722 53.9082 257.84 53.6043 258.075 53.3679C258.344 53.1316 258.646 53.0134 258.982 53.0134H265.282C265.651 53.0134 265.954 53.1316 266.189 53.3679C266.458 53.6043 266.592 53.9082 266.592 54.2796V78.0849C266.592 78.4563 266.458 78.7601 266.189 78.9964C265.954 79.2327 265.651 79.3509 265.282 79.3509H258.982Z" fill="black"/>
<path d="M285.24 79.3502C284.903 79.3502 284.634 79.2494 284.433 79.0461C284.231 78.8436 284.13 78.5738 284.13 78.2361V54.127C284.13 53.7893 284.231 53.5192 284.433 53.3166C284.634 53.114 284.903 53.0127 285.24 53.0127H299.502C299.838 53.0127 300.107 53.114 300.308 53.3166C300.51 53.5192 300.611 53.7893 300.611 54.127V54.8361C300.611 55.1738 300.51 55.4439 300.308 55.6465C300.107 55.8491 299.838 55.9504 299.502 55.9504H287.205V78.2361C287.205 78.5738 287.104 78.8436 286.902 79.0461C286.701 79.2494 286.432 79.3502 286.097 79.3502H285.24Z" fill="black"/>
<path d="M306.354 88.974C306.019 88.974 305.75 88.8731 305.548 88.6706C305.347 88.4681 305.246 88.1979 305.246 87.8599V54.1276C305.246 53.7899 305.347 53.5198 305.548 53.3172C305.75 53.1146 306.019 53.0133 306.354 53.0133H307.211C307.548 53.0133 307.817 53.1146 308.018 53.3172C308.219 53.5198 308.321 53.7899 308.321 54.1276V56.5081C310.269 53.8406 313.091 52.5068 316.787 52.5068C320.416 52.5068 323.087 53.6717 324.8 56.0016C326.548 58.2977 327.471 61.1341 327.573 64.5107C327.606 64.8484 327.623 65.4055 327.623 66.1821C327.623 66.9587 327.606 67.5159 327.573 67.8535C327.471 71.2302 326.548 74.0835 324.8 76.4133C323.087 78.7094 320.416 79.8574 316.787 79.8574C313.125 79.8574 310.302 78.5237 308.321 75.8562V87.8599C308.321 88.1979 308.219 88.4681 308.018 88.6706C307.817 88.8731 307.548 88.974 307.211 88.974H306.354ZM316.485 76.9198C319.206 76.9198 321.189 76.0587 322.432 74.3367C323.708 72.5808 324.398 70.3354 324.498 67.6003C324.532 67.2627 324.549 66.79 324.549 66.1821C324.549 63.0419 323.944 60.4757 322.734 58.4834C321.524 56.4575 319.441 55.4444 316.485 55.4444C313.83 55.4444 311.831 56.3393 310.487 58.1289C309.144 59.8848 308.421 61.9614 308.321 64.3587L308.27 66.3341L308.321 68.3094C308.354 69.7614 308.673 71.1458 309.278 72.4627C309.882 73.7458 310.79 74.8094 311.999 75.6535C313.209 76.4977 314.704 76.9198 316.485 76.9198Z" fill="black"/>
<path d="M344.459 79.8574C340.964 79.8574 338.242 78.7938 336.294 76.6666C334.379 74.5055 333.371 71.7198 333.27 68.3094L333.219 66.1821L333.27 64.0549C333.371 60.6444 334.379 57.8757 336.294 55.7484C338.242 53.5873 340.964 52.5068 344.459 52.5068C347.953 52.5068 350.657 53.5873 352.573 55.7484C354.522 57.8757 355.546 60.6444 355.647 64.0549C355.68 64.3925 355.698 65.1016 355.698 66.1821C355.698 67.2627 355.68 67.9717 355.647 68.3094C355.546 71.7198 354.522 74.5055 352.573 76.6666C350.657 78.7938 347.953 79.8574 344.459 79.8574ZM344.459 76.9198C346.844 76.9198 348.759 76.1601 350.204 74.6406C351.682 73.0873 352.471 70.8925 352.573 68.0562C352.606 67.7185 352.623 67.0939 352.623 66.1821C352.623 65.2705 352.606 64.6458 352.573 64.3081C352.471 61.4717 351.682 59.2939 350.204 57.7744C348.759 56.2211 346.844 55.4444 344.459 55.4444C342.073 55.4444 340.141 56.2211 338.663 57.7744C337.218 59.2939 336.446 61.4717 336.344 64.3081L336.294 66.1821L336.344 68.0562C336.446 70.8925 337.218 73.0873 338.663 74.6406C340.141 76.1601 342.073 76.9198 344.459 76.9198Z" fill="black"/>
<path d="M363.692 79.3502C363.356 79.3502 363.087 79.2494 362.885 79.0461C362.684 78.8436 362.583 78.5738 362.583 78.2361V54.127C362.583 53.7893 362.684 53.5192 362.885 53.3166C363.087 53.114 363.356 53.0127 363.692 53.0127H364.548C364.884 53.0127 365.153 53.114 365.355 53.3166C365.556 53.5192 365.657 53.7893 365.657 54.127V76.4127H376.341V54.127C376.341 53.7893 376.442 53.5192 376.644 53.3166C376.845 53.114 377.114 53.0127 377.451 53.0127H378.307C378.643 53.0127 378.912 53.114 379.113 53.3166C379.315 53.5192 379.416 53.7893 379.416 54.127V76.4127H390.1V54.127C390.1 53.7893 390.201 53.5192 390.403 53.3166C390.604 53.114 390.873 53.0127 391.209 53.0127H392.065C392.402 53.0127 392.671 53.114 392.872 53.3166C393.074 53.5192 393.175 53.7893 393.175 54.127V78.2361C393.175 78.5738 393.074 78.8436 392.872 79.0461C392.671 79.2494 392.402 79.3502 392.065 79.3502H363.692Z" fill="black"/>
<path d="M89.1807 51.8702C93.6674 51.8702 97.305 48.1954 97.305 43.6621C97.305 39.129 93.6674 35.4541 89.1807 35.4541C84.694 35.4541 81.0564 39.129 81.0564 43.6621C81.0564 48.1954 84.694 51.8702 89.1807 51.8702Z" fill="#FA6501"/>
<path d="M76.3628 64.2802C70.7914 62.4352 65.7757 59.1898 61.7864 54.8489L69.826 47.3078C72.5502 50.2721 75.9755 52.4883 79.7802 53.7483C83.5848 55.0083 87.6442 55.2707 91.5766 54.5109C95.509 53.7511 99.1858 51.994 102.262 49.4047C105.338 46.8153 107.712 43.4786 109.161 39.708L119.388 43.72C117.266 49.2417 113.789 54.1278 109.284 57.9196C105.742 60.9012 101.656 63.1292 97.2721 64.4862C97.2322 65.278 97.1553 66.0658 97.0432 66.8473C101.786 68.8811 106.102 71.8266 109.747 75.528C113.99 79.8346 117.213 85.0543 119.179 90.7956L108.451 94.5451C107.044 90.4355 104.736 86.7002 101.7 83.618C99.1733 81.0527 96.1965 78.9939 92.9274 77.5446C90.5472 81.0818 87.3212 83.9639 83.5417 85.9202C79.3976 88.064 74.7485 89.011 70.1059 88.6565C65.4634 88.3019 61.0079 86.66 57.23 83.9111L63.8931 74.5644C65.9681 76.0742 68.4153 76.9762 70.9652 77.1709C73.515 77.3655 76.0686 76.8454 78.3446 75.6678C80.6206 74.4902 82.5311 72.7007 83.8646 70.4966C84.709 69.1012 85.3017 67.5739 85.6231 65.9855C82.4864 65.8465 79.3701 65.2762 76.3628 64.2802Z" fill="#FA6501"/>
</svg>
